<svg xmlns="http://www.w3.org/2000/svg" width="512" height="512" viewBox="0 0 512 512"  xmlns:xlink="http://www.w3.org/1999/xlink"><rect id="svgEditorBackground" x="0" y="0" width="512" height="512" style="fill: none; stroke: none;"/><title>ionicons-v5-d</title><circle cx="-280.46795654296716" cy="-415.25265502930245" r="16" style="fill:none;stroke:#000;stroke-linecap:round;stroke-linejoin:round;stroke-width:32px" transform="matrix(0.187932 0 0 0.187932 361.119 174.944)"/><circle cx="-56.468055725096065" cy="-415.25265502930245" r="16" style="fill:none;stroke:#000;stroke-linecap:round;stroke-linejoin:round;stroke-width:32px" transform="matrix(0.187932 0 0 0.187932 361.119 174.944)"/><polyline points="-408.468 -751.253 -344.468 -751.253 -296.468 -479.253 -40.4681 -479.253" style="fill:none;stroke:#000;stroke-linecap:round;stroke-linejoin:round;stroke-width:32px" transform="matrix(0.187932 0 0 0.187932 361.119 174.944)"/><path d="M-296.4681493923158,-543.2525246828332h249.44a8,8,0,0,0,7.850000000000023,-6.42999999999995l28.80000000000001,-144.0000000000001a8,8,0,0,0,-7.850000000000023,-9.569999999999936h-310.24" style="fill:none;stroke:#000;stroke-linecap:round;stroke-linejoin:round;stroke-width:32px" transform="matrix(0.187932 0 0 0.187932 361.119 174.944)"/><text style="fill:black;font-family:Trebuchet MS;font-size:20px;font-weight:normal;" x="38.339088439941406" y="268.72412109375" id="e1_texte" transform="matrix(4.62457 0 0 4.62457 -167.486 -1146.08)">markIT</text><text style="fill:black;font-family:Arial;font-size:20px;" x="364.811" y="236.586" id="e3_texte"></text></svg>