<svg height="448pt" viewBox="0 0 448 448" width="448pt" xmlns="http://www.w3.org/2000/svg"><path d="m160 232c10.933594.023438 20.492188-7.382812 23.199219-17.976562.550781-1.960938.820312-3.988282.800781-6.023438v-64h-40.800781l-7.199219 64.414062c.007812 1.832032.257812 3.652344.742188 5.417969 2.660156 10.679688 12.253906 18.175781 23.257812 18.167969zm0 0"/><path d="m96 232c10.933594.023438 20.492188-7.382812 23.199219-17.976562.550781-1.960938.820312-3.988282.800781-6.023438 0-.292969.015625-.585938.046875-.878906l7.015625-63.121094h-47.863281l-7.199219 64.414062c.007812 1.832032.257812 3.652344.742188 5.417969 2.660156 10.679688 12.253906 18.175781 23.257812 18.167969zm0 0"/><path d="m280 304h64v112h-64zm0 0"/><path d="m104 304h112v64h-112zm0 0"/><path d="m392 416v-176.273438c-3.027344-2.222656-5.71875-4.863281-8-7.847656-7.5 10.15625-19.375 16.148438-32 16.148438s-24.5-5.992188-32-16.148438c-7.5 10.160156-19.375 16.152344-32 16.152344s-24.5-5.992188-32-16.152344c-7.5 10.160156-19.375 16.152344-32 16.152344s-24.5-5.992188-32-16.152344c-7.5 10.160156-19.375 16.152344-32 16.152344s-24.5-5.992188-32-16.152344c-7.5 10.160156-19.375 16.152344-32 16.152344s-24.5-5.992188-32-16.152344c-2.28125 2.988282-4.976562 5.640625-8 7.875v176.246094h208v-120c0-4.417969 3.582031-8 8-8h80c4.417969 0 8 3.582031 8 8v120zm-160-40c0 4.417969-3.582031 8-8 8h-128c-4.417969 0-8-3.582031-8-8v-80c0-4.417969 3.582031-8 8-8h128c4.417969 0 8 3.582031 8 8zm0 0"/><path d="m224 232c10.933594.023438 20.492188-7.382812 23.199219-17.976562.550781-1.960938.820312-3.988282.800781-6.023438v-64h-48v64c-.027344 1.96875.226562 3.933594.742188 5.832031 2.660156 10.679688 12.253906 18.175781 23.257812 18.167969zm0 0"/><path d="m22.398438 144-14.398438 64.800781c.429688 12.941407 11.050781 23.207031 24 23.199219 4.21875 0 8.359375-1.125 12-3.257812 5.554688-3.214844 9.585938-8.523438 11.199219-14.734376.546875-1.957031.816406-3.976562.800781-6.007812 0-.292969.015625-.585938.046875-.878906l7.015625-63.121094zm0 0"/><path d="m0 432h448v16h-448zm0 0"/><path d="m400 144h-15.0625l7.015625 63.121094c.03125.292968.046875.585937.046875.878906-.027344 1.96875.226562 3.933594.742188 5.832031 1.597656 6.28125 5.652343 11.65625 11.257812 14.910157 3.640625 2.132812 7.78125 3.257812 12 3.257812 12.949219.007812 23.570312-10.257812 24-23.199219l-14.398438-64.800781zm0 0"/><path d="m56 112h336v16h-336zm0 0"/><path d="m328 208c-.027344 1.96875.226562 3.933594.742188 5.832031 2.703124 10.597657 12.222656 18.027344 23.160156 18.074219 10.933594.042969 20.519531-7.308594 23.304687-17.882812.511719-1.824219.78125-3.707032.800781-5.597657l-7.167968-64.425781h-47.902344l7.015625 63.121094c.03125.292968.046875.585937.046875.878906zm0 0"/><path d="m288 232c10.933594.023438 20.492188-7.382812 23.199219-17.976562.511719-1.824219.78125-3.707032.800781-5.597657l-7.160156-64.425781h-40.839844v64c-.027344 1.96875.226562 3.933594.742188 5.832031 2.660156 10.679688 12.253906 18.175781 23.257812 18.167969zm0 0"/><path d="m104 0h240v64h-240zm0 0"/><path d="m320 80h16v16h-16zm0 0"/><path d="m112 80h16v16h-16zm0 0"/></svg>